<svg fill="#000000" xmlns="http://www.w3.org/2000/svg"  viewBox="0 0 24 24" width="24px" height="24px"><path d="M 4.1992188 2 C 2.9962489 2 2 2.9962489 2 4.1992188 L 2 19.800781 C 2 21.003751 2.9962489 22 4.1992188 22 L 19.800781 22 C 21.003751 22 22 21.003751 22 19.800781 L 22 4.1992188 C 22 2.9962489 21.003751 2 19.800781 2 L 4.1992188 2 z M 4.1992188 4 L 19.800781 4 C 19.923811 4 20 4.0761886 20 4.1992188 L 20 8 L 8 8 L 8 16 L 14 16 L 14 20 L 4.1992188 20 C 4.0761886 20 4 19.923811 4 19.800781 L 4 4.1992188 C 4 4.0761886 4.0761886 4 4.1992188 4 z M 10 10 L 20 10 L 20 19.800781 C 20 19.923811 19.923811 20 19.800781 20 L 16 20 L 16 14 L 10 14 L 10 10 z"/></svg>